<?xml version="1.0" encoding="UTF-8"?>
<svg width="18px" height="23px" viewBox="0 0 18 23" version="1.1" xmlns="http://www.w3.org/2000/svg" xmlns:xlink="http://www.w3.org/1999/xlink">
    <title>go-seeklogo.com</title>
    <g id="Page-1" stroke="none" stroke-width="1" fill="none" fill-rule="evenodd">
        <g id="Artboard" transform="translate(-839.000000, -849.000000)" fill-rule="nonzero">
            <g id="Group-2" transform="translate(456.000000, 504.000000)">
                <g id="go-seeklogo.com" transform="translate(383.000000, 345.000000)">
                    <path d="M0.197686851,12.191666 C0.238548527,12.6308265 1.08029904,12.4261692 1.45622645,12.2897309 C1.81580919,12.1575564 1.92204955,12.2684125 1.95473889,12.0125909 C1.9792559,11.8420431 2.01194524,11.675759 1.99560057,11.5052113 C1.44805411,11.4796291 0.859645992,11.5478482 0.410167563,11.718396 C0.173169847,11.8036699 -0.251791577,12.0850736 0.197686851,12.191666" id="Path" fill="#F6D2A2"></path>
                    <path d="M14.0707113,21.0833333 C14.5596489,21.3997522 15.457066,22.3554667 14.720565,22.8204088 C14.0150096,23.4919919 13.6189083,22.0777929 13,21.884067 C13.2661305,21.5030728 13.600341,21.1543661 14.0707113,21.0833333 L14.0707113,21.0833333 L14.0707113,21.0833333 Z" id="Path" fill="#F6D2A2"></path>
                    <path d="M5,21.9836571 C4.25860355,22.0743926 3.84405929,22.6188054 3.22224291,22.8974929 C2.64028655,23.1761804 2.41707041,22.8067574 2.36923838,22.7289842 C2.28154633,22.6965786 2.28951834,22.7613897 2.14602225,22.6447298 C1.60392592,21.9512517 2.70406259,21.4457255 3.27804695,21.1022269 C4.07524743,20.9726048 4.57748374,21.5364609 5,21.9836571 L5,21.9836571 L5,21.9836571 Z" id="Path" fill="#F6D2A2"></path>
                    <path d="M17.8038341,12.191666 C17.762938,12.6308265 16.9204771,12.4261692 16.5442324,12.2897309 C16.1843462,12.1575565 16.0780162,12.2684125 16.0452993,12.0125908 C16.0207616,11.8420431 15.9880447,11.6757591 16.0044031,11.5052113 C16.5524116,11.4796291 17.1413164,11.5478482 17.5911741,11.718396 C17.8201926,11.8036698 18.2536919,12.0850737 17.8038341,12.191666" id="Path" fill="#F6D2A2"></path>
                    <path d="M15.8550435,4.08822153 C18.2972286,3.23819527 16.3886302,-0.0607161614 14.2611243,1.39647171 C12.8655899,0.215879685 10.9433097,0 8.92525752,0 C6.94825051,0.155163523 5.06701544,0.512714251 3.75357131,1.6460826 C1.63290632,0.296834567 -0.323578146,3.53502984 2.166493,4.3513249 C1.46872581,7.02283598 2.26226496,9.74831703 2.15281129,12.4670518 C2.05019847,14.9091907 1.40031726,18.1811172 2.77532908,20.3736452 C3.94511525,22.2491 6.46254981,22.9169778 8.5353288,22.9911864 C11.1827397,23.0856338 14.3911005,22.444741 15.6771813,19.9149009 C16.9085351,17.5064932 16.5664924,14.5044163 16.4091527,11.9071139 C16.2518131,9.28282645 16.5459698,6.61806159 15.8550435,4.08822153 L15.8550435,4.08822153 Z" id="Path" fill="#69D7E2"></path>
                    <path d="M17.9511094,11.9627346 C17.8807656,11.8241702 17.7471122,11.6658107 17.620493,11.5800327 C17.296911,11.3622885 16.8818819,11.243519 16.452784,11.2303223 C16.4387152,10.8212271 16.4246465,10.3725422 16.4246465,9.80508756 L16.4246465,9.29041942 C16.4176121,7.66723536 16.3965089,6.95461794 16.2980274,6.06384619 C16.2206491,5.36442542 16.1010644,4.71779111 15.9322391,4.11074666 C16.5020248,3.90619907 16.8748476,3.5696853 17.0225697,3.13419689 C17.1632576,2.73170003 17.0929137,2.27641669 16.8537444,1.87391983 C16.6075407,1.47802127 16.2136147,1.18109736 15.7563792,1.06232779 C15.2639719,0.936959915 14.7293581,1.02933624 14.2158474,1.3526534 C13.758612,0.989746385 13.2310326,0.712617395 12.6401437,0.501471503 C11.5920193,0.138564494 10.3750696,0 8.72198746,0 L8.72198746,0.0659830925 L8.71495307,0 C6.94932076,0.131966185 5.64092389,0.389300245 4.55762756,0.884173438 C4.12149527,1.08212272 3.73460373,1.31966185 3.39695292,1.59679084 C2.87640793,1.29326861 2.33475976,1.22068721 1.83531795,1.36585001 C1.37104809,1.4978162 0.970087763,1.80793673 0.730918445,2.2104336 C0.491749122,2.61293046 0.435473987,3.07481211 0.597264998,3.47071066 C0.759056006,3.86660922 1.13187877,4.17672975 1.68759572,4.36808072 C1.51173593,5.03450995 1.42028884,5.74052904 1.40622005,6.51912953 C1.39215127,7.2779351 1.42732323,7.88497953 1.55394228,9.25742784 C1.64538937,10.2801658 1.68056133,10.7486458 1.69463012,11.3161004 C1.21629147,11.2963054 0.73795283,11.415075 0.379198853,11.6592124 C0.252579801,11.7449905 0.111891966,11.8967515 0.0485824397,12.0419144 C-0.0428646529,12.226667 -0.00769269408,12.3916247 0.175201492,12.4905994 C0.203339059,12.8073183 0.393267637,12.9524811 0.6816777,12.9260878 C0.892709449,12.9062929 1.14594756,12.8007199 1.3640137,12.6555571 C1.41325445,12.6225656 1.46249518,12.5961723 1.51173593,12.5763774 C1.5328391,12.5697791 1.54690789,12.5631808 1.56801106,12.5565825 C1.56801106,12.5565825 1.61021741,12.5433859 1.62428619,12.5367876 C1.64538937,12.5301892 1.66649255,12.5235909 1.68056133,12.5103944 C1.66649255,12.8205149 1.63835498,13.143832 1.57504545,13.8828427 C1.50470154,14.7142296 1.46952958,15.1695129 1.45546079,15.6775828 C1.39215127,17.5646992 1.63132059,18.9371475 2.34882855,20.0258686 C2.57392908,20.3689806 2.84827036,20.6725029 3.17185238,20.9496318 C3.10854285,20.9892217 2.84123597,21.1739744 2.75682327,21.2333592 C2.46137881,21.444505 2.25738146,21.6226594 2.13779679,21.8206086 C1.98304018,22.0779427 1.98304018,22.3352768 2.15889997,22.6058075 L2.16593436,22.6124058 L2.17296875,22.6190041 C2.25034707,22.6915855 2.29255341,22.7113804 2.34882855,22.7113804 L2.35586294,22.7113804 L2.36993172,22.7113804 L2.36993172,22.7113804 C2.37696612,22.724577 2.38400051,22.7311754 2.3910349,22.744372 C2.41213807,22.7773635 2.43324125,22.8037568 2.45434442,22.83015 C2.63020422,23.0215009 2.87640793,23.0676892 3.20702434,22.8829364 C3.38288413,22.7971585 3.50950319,22.6981838 3.77681008,22.4870379 C3.78384447,22.4804396 3.78384447,22.4804396 3.79087886,22.4738413 C4.21997675,22.1307292 4.43100851,22.0053613 4.74755614,21.9591732 L4.86010641,21.9393782 C4.90231276,21.9591732 4.94451911,21.9723698 4.99375985,21.9921647 C5.99264348,22.3682684 7.15331814,22.5728159 8.32806153,22.6124058 C9.84749013,22.6651923 11.3106437,22.4870379 12.5486966,22.0647461 C12.879313,21.9525748 13.1888263,21.8206086 13.4842707,21.6754459 C13.6671649,21.741429 13.8219215,21.8799934 14.117366,22.2033106 C14.1314348,22.2165072 14.1314348,22.2165072 14.1384691,22.2297039 C14.1525379,22.2429005 14.1525379,22.2494988 14.1595723,22.2560971 C14.1736411,22.275892 14.1947443,22.2890886 14.208813,22.3088836 C14.440948,22.5662176 14.5957046,22.6915855 14.7715644,22.7641669 C15.0036993,22.8565432 15.2287999,22.8103551 15.4609348,22.6124058 C15.8689296,22.3748667 15.8970671,22.0053613 15.6297602,21.5830695 C15.4398316,21.2861456 15.1092152,20.9760251 14.799702,20.7780758 C15.1654903,20.441562 15.4820379,20.0390652 15.7282417,19.5837818 C16.4035433,18.3169065 16.6638158,16.8388852 16.649747,14.9385721 C16.6427126,14.2655446 16.614575,13.6782951 16.5371968,12.5565825 L16.5371968,12.5235909 C16.5723687,12.5367876 16.6075407,12.5565825 16.6427126,12.5829757 C16.8607788,12.7215402 17.1140169,12.8337114 17.3250486,12.8535064 C17.6134587,12.8798997 17.8033873,12.7347368 17.8315248,12.418018 L17.8315248,12.418018 C18.0073846,12.3124451 18.0425566,12.1474873 17.9511094,11.9627346 L17.9511094,11.9627346 Z M15.7141729,1.20089228 C16.1362364,1.30646523 16.5020248,1.58359422 16.7271253,1.95309954 C16.9522258,2.32260485 17.0155353,2.73829834 16.8889163,3.10780365 C16.7552629,3.4971039 16.4176121,3.80722444 15.8900327,3.99197709 C15.7845168,3.63566839 15.6578978,3.28595801 15.5172099,2.94944423 C15.7212073,2.7844865 15.8196888,2.57993891 15.6578978,2.28961331 C15.4961067,1.9992877 15.2147311,1.96629616 14.926321,2.05207417 C14.7434268,1.82773166 14.5394294,1.62978238 14.3283978,1.44502973 C14.7926676,1.16790074 15.2710062,1.08872103 15.7141729,1.20089228 L15.7141729,1.20089228 Z M0.71684966,3.43112081 C0.569127431,3.07481211 0.618368173,2.65252032 0.843468711,2.283015 C1.06856925,1.91350968 1.43435761,1.62318407 1.8704899,1.50441451 C2.32069098,1.37904663 2.80606401,1.43843142 3.28440265,1.70236379 C3.01006137,1.93330461 2.76385766,2.19723698 2.55282591,2.48756259 C2.18703754,2.30940823 1.81421477,2.27641669 1.60318302,2.6393237 C1.38511688,3.02862395 1.63835498,3.27276139 1.99710896,3.45751404 C1.94786822,3.5696853 1.89862747,3.68845487 1.85642112,3.80722444 C1.80718038,3.95238724 1.75793964,4.10414835 1.71573329,4.25590946 C1.20222269,4.07115681 0.864571888,3.78742951 0.71684966,3.43112081 L0.71684966,3.43112081 Z M1.56801106,12.4246163 C1.56097667,12.4246163 1.51877032,12.4378129 1.51877032,12.4444113 C1.49766714,12.4510096 1.47656397,12.4576078 1.45546079,12.4708045 C1.39918566,12.4905994 1.34291052,12.5235909 1.28663539,12.5631808 C1.08967242,12.695147 0.850503104,12.7941216 0.667608915,12.8073183 C0.456577162,12.8271132 0.336992503,12.7413352 0.315889327,12.503796 C0.463611554,12.4576078 0.52692108,12.4246163 0.583196214,12.3454366 L0.470645946,12.2662569 C0.428439595,12.3190434 0.386233245,12.3388383 0.259614193,12.3784282 L0.259614193,12.3784282 C0.252579801,12.3784282 0.252579801,12.3784282 0.245545409,12.3850265 C0.132995141,12.3256417 0.111891966,12.2332653 0.175201492,12.1012991 C0.231476626,11.9825296 0.358095678,11.8439651 0.463611554,11.7713837 C0.801262359,11.5404429 1.25146343,11.4282716 1.70166451,11.4546648 C1.70166451,11.6196226 1.7086989,11.7845803 1.70166451,11.9429398 C1.70166451,11.9627346 1.70166451,11.9759313 1.69463012,11.9957262 C1.68759572,12.0881025 1.68759572,12.1276924 1.68056133,12.1738806 L1.68056133,12.1738806 C1.65945816,12.3652315 1.64538937,12.3916247 1.56801106,12.4246163 L1.56801106,12.4246163 Z M3.69239737,22.3814649 C3.68536298,22.3880632 3.68536298,22.3880632 3.67832859,22.3946616 C3.41805609,22.6058075 3.29143704,22.6915855 3.12964603,22.7773635 C2.86233914,22.9291246 2.67944496,22.8961331 2.55282591,22.7509703 C2.53172274,22.7311754 2.51765395,22.7047821 2.50358517,22.6849872 C2.49655078,22.6783889 2.48951638,22.6651923 2.48248199,22.6585939 C2.48248199,22.6585939 2.48248199,22.6585939 2.48248199,22.6519956 C2.49655078,22.5332261 2.54579151,22.447448 2.67241057,22.2626954 C2.67944496,22.2560971 2.67944496,22.2560971 2.67944496,22.2494988 C2.75682327,22.1439258 2.79199523,22.084541 2.82716718,22.0119596 L2.70054813,21.9591732 C2.67241057,22.0185579 2.63723861,22.0713444 2.56689469,22.1769174 C2.5598603,22.1835157 2.5598603,22.1835157 2.5598603,22.190114 C2.43324125,22.36167 2.37696612,22.467243 2.34882855,22.5860125 L2.34179416,22.5860125 C2.34179416,22.5860125 2.34179416,22.5860125 2.33475976,22.5860125 L2.32069098,22.5860125 C2.3066222,22.5794142 2.28551902,22.5662176 2.25738146,22.5398244 C1.98304018,22.1307292 2.20110632,21.7810188 2.8201328,21.3455304 C2.89751111,21.2927439 3.1577836,21.1211879 3.22812752,21.0684014 C3.2421963,21.0684014 3.25626508,21.0618031 3.27033387,21.0552048 C3.65019103,21.358727 4.0933577,21.6226594 4.58576513,21.8404036 L4.58576513,21.8404036 C4.58576513,21.8470019 4.59279952,21.8536002 4.59983391,21.8601985 C4.31142385,21.9261816 4.08632331,22.0647461 3.69239737,22.3814649 L3.69239737,22.3814649 Z M15.5031411,21.6622493 C15.7212073,22.0053613 15.7141729,22.2824903 15.4398316,22.4738413 C15.4187284,22.4342515 15.4046597,22.3880632 15.3765221,22.3220801 C15.3765221,22.3154818 15.3765221,22.3154818 15.3694877,22.3088836 C15.2710062,22.0581478 15.2076967,21.9525748 15.088112,21.8338053 L14.9896306,21.9261816 C15.0951464,22.0185579 15.1443871,22.1175326 15.2428687,22.3484734 C15.2428687,22.3550717 15.2428687,22.3550717 15.2499031,22.36167 C15.285075,22.447448 15.3061782,22.5002346 15.3272814,22.5464227 C15.1443871,22.6915855 14.9825962,22.7179787 14.8137707,22.6453973 C14.6660486,22.5860125 14.5253607,22.4606447 14.3002602,22.2231055 C14.2861914,22.2099089 14.2721226,22.190114 14.2580538,22.1703191 C14.2510194,22.1637208 14.243985,22.1571224 14.2369506,22.1439258 C14.2228818,22.1307292 14.2228818,22.1307292 14.2158474,22.1175326 C13.9555749,21.8338053 13.8008183,21.6820442 13.6319929,21.5962662 C14.0259189,21.3851202 14.3776385,21.1475811 14.6941861,20.8704521 C14.9896306,21.0749997 15.320247,21.3785219 15.5031411,21.6622493 L15.5031411,21.6622493 Z M15.6016227,19.5243971 C14.996665,20.6659046 13.9274374,21.4708983 12.4924215,21.9591732 C11.2684373,22.3748667 9.81935261,22.5464227 8.32102714,22.4936362 C5.73940538,22.4078582 3.5024688,21.5632746 2.45434442,19.9664838 C1.75090525,18.904156 1.51877032,17.5515026 1.58207984,15.6907794 C1.60318302,15.1827096 1.63132059,14.7274262 1.70166451,13.8960393 C1.77904281,12.9590793 1.80014599,12.6885487 1.82124917,12.2662569 C1.83531795,11.9627346 1.83531795,11.6526141 1.82828356,11.3226987 C1.81421477,10.7420475 1.77904281,10.2801658 1.68759572,9.24423128 C1.56097667,7.8717829 1.52580471,7.27133679 1.5398735,6.51912953 C1.56097667,5.52938315 1.70166451,4.65840633 1.99710896,3.83361767 C2.4754476,2.4941609 3.35474657,1.59019253 4.62093709,1.002943 C5.68313024,0.514668121 6.97042394,0.26393237 8.72198746,0.131966185 C10.3610008,0.131966185 11.5568474,0.270530679 12.590903,0.626839378 C13.8289559,1.05572948 14.7504612,1.80793673 15.3835565,2.96264085 C15.7915512,3.89960076 16.0307205,4.90914208 16.1573396,6.0704445 C16.2558211,6.95461794 16.2769242,7.66723536 16.2839586,9.28382111 L16.2839586,9.79848924 C16.290993,10.5968846 16.3050618,11.1577409 16.3402338,11.7185972 C16.3543025,11.9363414 16.3613369,12.0287177 16.3965089,12.5499842 C16.4738872,13.6716967 16.5020248,14.252348 16.5090592,14.9253755 C16.523128,16.8190903 16.2698899,18.2773166 15.6016227,19.5243971 L15.6016227,19.5243971 Z M17.7541465,12.2992484 L17.7541465,12.2992484 C17.7471122,12.2992484 17.7400778,12.2926501 17.7330434,12.2926501 C17.6064243,12.2530603 17.5642179,12.226667 17.5220116,12.1804789 L17.4094613,12.2596586 C17.4727709,12.3388383 17.5360804,12.3718298 17.6767682,12.418018 C17.6486306,12.6555571 17.529046,12.7413352 17.3250486,12.7215402 C17.1421545,12.7083436 16.9029851,12.6027706 16.7060221,12.4774028 C16.649747,12.4378129 16.5934719,12.4114197 16.5371968,12.3850265 C16.5301624,12.3850265 16.523128,12.3784282 16.5160936,12.3784282 C16.487956,12.0155211 16.487956,11.9231448 16.4738872,11.7317938 C16.4668528,11.6130243 16.4598184,11.4942547 16.452784,11.3754852 C16.84671,11.3820835 17.2336015,11.4942547 17.529046,11.6988023 C17.6345618,11.7713837 17.7611809,11.9099482 17.817456,12.0287177 C17.8877999,12.140889 17.8737312,12.2398637 17.7541465,12.2992484 L17.7541465,12.2992484 Z" id="Shape" fill="#000000"></path>
                    <g id="Group" transform="translate(8.000000, 6.708333)">
                        <path d="M1.9049815,0.453030303 C1.91131606,0.808484849 1.97466173,1.19878788 1.91765063,1.57515151 C1.82896669,1.75636364 1.66426795,1.77727273 1.51857291,1.84696969 C1.31586676,1.81212121 1.14483345,1.66575758 1.06248408,1.45666666 C1.01180754,1.03151515 1.07515321,0.627272727 1.09415691,0.202121212 C1.09415691,0.188181818 1.33487046,0.209090909 1.55024574,0.278787878 C1.73394818,0.341515151 1.9049815,0.446060606 1.9049815,0.453030303 L1.9049815,0.453030303 Z" id="Path" fill="#FFFFFF"></path>
                        <path d="M0.112299023,0.480909091 C-0.0650688536,1.21969697 0.346678004,2.42545454 1.02447668,1.43575757 C0.973800139,1.01757575 1.03081125,0.613333333 1.04981495,0.202121212 C1.05614951,0.167272727 0.11863359,0.432121212 0.112299023,0.480909091 L0.112299023,0.480909091 Z" id="Path" fill="#FFFFFF"></path>
                        <path d="M1.9809963,0.78060606 C1.96832716,0.571515151 1.9619926,0.487878787 1.9619926,0.383333333 L1.9619926,0.334545454 L1.91765063,0.32060606 L1.11949518,0.0487878788 L1.11949518,0 L1.03714581,0.0209090908 L1.03081125,0.0209090908 L1.03081125,0.0278787875 L0.131302724,0.278787878 L0.0996298893,0.285757576 L0.0869607553,0.32060606 C-0.0523997196,0.690000002 -0.0207268844,1.24757576 0.156640992,1.58909091 C0.359347138,1.97939394 0.688744621,1.98636363 1.02447668,1.54030303 C1.11949518,1.74242424 1.29686306,1.88181818 1.4995692,1.91666667 L1.51857291,1.91666667 L1.53757661,1.90969697 C1.56291488,1.89575757 1.58825314,1.88878788 1.63259511,1.86787879 C1.63892968,1.86787879 1.63892968,1.86787879 1.64526425,1.86090909 C1.82896669,1.79121212 1.9049815,1.73545454 1.96832716,1.6030303 L1.97466173,1.5960606 L1.97466173,1.58212121 C1.99366543,1.45666666 2,1.32424242 2,1.17787879 C2,1.07333333 1.99366543,0.975757578 1.9809963,0.78060606 L1.9809963,0.78060606 Z M0.967465572,0.522727273 C0.961131004,0.648181817 0.954796437,0.696969699 0.948461869,0.766666665 C0.935792741,1.02454545 0.935792741,1.21969697 0.954796437,1.41484848 C0.65707179,1.8330303 0.422692808,1.8330303 0.264328632,1.51939394 C0.112299023,1.22666667 0.0806261879,0.731818179 0.194648395,0.404242424 L0.992803841,0.181212121 C0.986469274,0.271818182 0.980134706,0.362424242 0.967465572,0.522727273 L0.967465572,0.522727273 Z M1.85430496,1.55424242 C1.80996299,1.63787879 1.75295189,1.67969696 1.60092228,1.73545454 C1.59458771,1.73545454 1.59458771,1.73545454 1.58825314,1.74242424 C1.55024574,1.75636364 1.52490747,1.77030303 1.50590377,1.77727273 C1.33487046,1.74242424 1.18917542,1.6169697 1.11949518,1.44272727 C1.10049148,1.25454546 1.10049148,1.05939394 1.11316061,0.801515152 C1.11949518,0.731818179 1.11949518,0.683030305 1.13216432,0.557575757 C1.14483345,0.397272727 1.15116802,0.29969697 1.15116802,0.209090909 L1.84163582,0.439090909 C1.84163582,0.529696969 1.84797039,0.613333333 1.86063952,0.794545455 C1.87330866,0.982727275 1.87964323,1.08030303 1.87964323,1.19181818 C1.87964323,1.32424242 1.87330866,1.44272727 1.85430496,1.55424242 L1.85430496,1.55424242 Z" id="Shape" fill="#000000"></path>
                    </g>
                    <g id="Group" transform="translate(3.000000, 1.916667)">
                        <path d="M0.123952735,2.38275744 C0.810299936,4.59189307 5.08504936,4.02418224 4.92092285,1.80887583 C4.72695517,-0.84455523 -0.532553284,-0.332381328 0.123952735,2.38275744" id="Path" fill="#FFFFFF"></path>
                        <path d="M4.99552581,1.80270506 C4.95076404,1.16094499 4.60759043,0.661112626 4.04060796,0.346403363 C3.53330786,0.0625479465 2.86188125,-0.0485259119 2.19791493,0.0193525573 C1.53394862,0.0934017964 0.922204369,0.340232593 0.519348406,0.728991099 C0.0717306655,1.16094499 -0.0998561351,1.72865583 0.0568100741,2.38275744 L0.123952735,2.37041589 L0.0568100741,2.38275744 C0.758077871,4.65360077 5.15965232,4.10440224 4.99552581,1.80270506 L4.99552581,1.80270506 Z M0.191095396,2.37041589 C0.0418894828,1.74716814 0.206015988,1.21648192 0.623792545,0.815381876 C1.00426763,0.451306452 1.57871039,0.210646425 2.21283553,0.142767956 C2.84696065,0.0748894863 3.48108579,0.179792575 3.95854471,0.451306452 C4.4882257,0.74750341 4.80901842,1.21031115 4.85378019,1.82121737 C5.0104464,3.97481608 0.855061712,4.49316075 0.191095396,2.37041589 L0.191095396,2.37041589 Z" id="Shape" fill="#000000"></path>
                        <ellipse id="Oval" fill="#000000" cx="1.30267945" cy="2.01868201" rx="1" ry="1"></ellipse>
                        <ellipse id="Oval" fill="#FFFFFF" cx="1.63093246" cy="2.16678049" rx="1" ry="1"></ellipse>
                    </g>
                    <g id="Group" transform="translate(9.000000, 0.958333)">
                        <path d="M0.0791830585,2.17649485 C0.604573928,4.70860685 5.57728751,4.0370735 4.85949998,1.48647892 C4.21571117,-0.805359678 -0.0984138552,-0.170791462 0.0791830585,2.17649485" id="Path" fill="#FFFFFF"></path>
                        <path d="M4.92609882,1.47415722 C4.26751027,-0.88545081 -0.172412569,-0.238560882 0.00518434449,2.18265571 L0.00518434449,2.18881656 C0.2493801,3.38402272 1.52955785,3.9939475 2.94293329,3.79680009 C3.5867221,3.70438725 4.16391207,3.44563128 4.54130551,3.06365818 C4.95569831,2.63855908 5.10369574,2.09024286 4.92609882,1.47415722 L4.92609882,1.47415722 Z M4.43030744,2.9897279 C4.07511361,3.34705757 3.534923,3.59349183 2.92073368,3.67974382 C1.58135695,3.86456952 0.382577786,3.29160987 0.145781901,2.17033399 C-0.0170152697,-0.109182897 4.17131194,-0.719107683 4.79290114,1.49880064 C4.95569831,2.084082 4.82250063,2.59543309 4.43030744,2.9897279 L4.43030744,2.9897279 Z" id="Shape" fill="#000000"></path>
                        <ellipse id="Oval" fill="#000000" cx="1.30016184" cy="2.06559943" rx="1" ry="1"></ellipse>
                        <ellipse id="Oval" fill="#FFFFFF" cx="1.62575618" cy="2.21345998" rx="1" ry="1"></ellipse>
                    </g>
                    <g id="Group" transform="translate(7.000000, 4.791667)">
                        <path d="M0.924179282,0.647268731 C0.334040033,0.685528581 -0.144047461,1.19383807 0.162227339,1.59829937 C0.565613663,2.13393732 1.46949784,1.54910813 2.02975662,1.60376507 C2.6796568,1.61469645 3.21003512,2.10660885 3.72547319,1.69121616 C4.30067221,1.23209792 3.47895933,0.78391106 2.82905914,0.587146101 L0.924179282,0.647268731 L0.924179282,0.647268731 Z" id="Path" fill="#F6D2A2"></path>
                        <path d="M3.80017437,1.01347018 C3.5984812,0.82763661 3.24738571,0.658200118 2.86640973,0.543420557 L2.85146949,0.537954864 L2.83652926,0.537954864 L0.924179282,0.592611794 C0.259338862,0.636337343 -0.218748632,1.19930376 0.102466403,1.62562784 C0.229458394,1.78959864 0.401271087,1.87158404 0.632844717,1.88251543 C0.80465741,1.88798112 0.983940222,1.86065265 1.26033455,1.78959864 C1.28274491,1.78413295 1.31262538,1.77866725 1.34997596,1.76773586 C1.72348181,1.67481908 1.87288416,1.64749061 2.0222865,1.66388769 L2.02975662,1.66388769 C2.20903943,1.66388769 2.35844177,1.70214755 2.64230622,1.78413295 C2.95605114,1.87704973 3.05316266,1.9043782 3.21003512,1.91530959 C3.42666851,1.92624097 3.61342144,1.87158404 3.78523413,1.73494171 C4.0765687,1.49991689 4.06162847,1.248495 3.80017437,1.01347018 L3.80017437,1.01347018 Z M3.67318238,1.658422 C3.53125015,1.77320156 3.38931793,1.81146141 3.21750524,1.80599572 C3.08304313,1.80053003 2.99340172,1.77320156 2.69459703,1.68575047 C2.39579235,1.59283368 2.23144977,1.56003952 2.03722673,1.55457382 C1.8504738,1.53817674 1.69360134,1.56550521 1.29768514,1.66388769 C1.26033455,1.67481908 1.23045408,1.68028477 1.20804373,1.68575047 C0.662725185,1.8223928 0.401271087,1.81146141 0.221988276,1.5709709 C-0.0469359391,1.21570084 0.363920502,0.734719823 0.924179282,0.696459968 L2.81411891,0.641803037 C3.17268453,0.751116904 3.49389957,0.909622008 3.6806525,1.07905851 C3.90475601,1.27582347 3.91222612,1.47258842 3.67318238,1.658422 L3.67318238,1.658422 Z" id="Shape" fill="#231F20"></path>
                        <g transform="translate(0.848714, 0.000000)" fill="#000000" id="Path">
                            <path d="M2.129747,0.425971231 C1.89817338,-0.217866063 -0.0440570678,-0.121855238 0.00076363485,0.646231359 C0.0978751572,1.21664861 2.35385052,1.06416083 2.129747,0.425971231 L2.129747,0.425971231 Z"></path>
                        </g>
                    </g>
                </g>
            </g>
        </g>
    </g>
</svg>